<?xml version="1.0" standalone="no"?>
<!DOCTYPE svg PUBLIC "-//W3C//DTD SVG 20010904//EN"
 "http://www.w3.org/TR/2001/REC-SVG-20010904/DTD/svg10.dtd">
<svg version="1.0" xmlns="http://www.w3.org/2000/svg"
 width="1672.000000pt" height="1216.000000pt" viewBox="0 0 1672.000000 1216.000000"
 preserveAspectRatio="xMidYMid meet">

<g transform="translate(0.000000,1216.000000) scale(0.100000,-0.100000)"
fill="#000000" stroke="none">
<path d="M6955 11623 c-56 -15 -95 -66 -95 -128 0 -56 39 -89 129 -109 128
-29 163 -62 124 -115 -47 -62 -177 -45 -198 27 -7 26 -14 32 -37 32 -23 0 -28
-4 -28 -25 0 -73 70 -125 170 -125 104 0 170 52 170 134 0 64 -35 94 -140 120
-123 31 -147 51 -119 102 14 27 36 36 84 36 53 0 76 -12 91 -48 12 -28 20 -34
44 -34 28 0 29 2 23 33 -14 79 -116 126 -218 100z"/>
<path d="M1930 11405 l0 -215 30 0 30 0 1 168 1 167 56 -167 57 -168 31 0 32
0 55 163 55 162 1 -162 1 -163 30 0 30 0 0 215 0 215 -43 0 -42 0 -54 -162
c-29 -90 -57 -167 -61 -171 -4 -4 -33 69 -65 163 l-57 170 -44 0 -44 0 0 -215z"/>
<path d="M3280 11405 l0 -215 25 0 25 0 0 215 0 215 -25 0 -25 0 0 -215z"/>
<path d="M3410 11590 c0 -25 4 -30 25 -30 21 0 25 5 25 30 0 25 -4 30 -25 30
-21 0 -25 -5 -25 -30z"/>
<path d="M4170 11590 c0 -25 4 -30 25 -30 21 0 25 5 25 30 0 25 -4 30 -25 30
-21 0 -25 -5 -25 -30z"/>
<path d="M4790 11405 l0 -215 30 0 30 0 2 166 3 167 105 -167 c101 -159 106
-166 137 -166 l33 0 0 215 0 215 -30 0 -30 0 -2 -160 -3 -160 -100 160 -100
160 -37 0 -38 0 0 -215z"/>
<path d="M5220 11406 l0 -216 35 0 35 0 0 100 0 100 105 0 105 0 0 -100 0
-100 35 0 35 0 -2 213 -3 212 -32 3 -33 3 0 -90 0 -91 -105 0 -104 0 -3 88 -3
87 -32 3 -33 3 0 -215z"/>
<path d="M5687 11412 c-42 -114 -77 -211 -77 -215 0 -5 14 -7 31 -5 29 3 34 9
53 63 l21 60 82 3 81 3 22 -66 c21 -64 22 -65 57 -65 24 0 34 4 30 13 -2 6
-37 103 -78 215 l-73 202 -36 0 -35 0 -78 -208z m148 28 l24 -70 -60 0 c-32 0
-59 3 -59 7 0 4 12 42 27 85 31 86 31 86 68 -22z"/>
<path d="M6040 11405 l0 -215 30 0 30 0 2 166 3 167 105 -167 c101 -159 106
-166 137 -166 l33 0 0 215 0 215 -30 0 -30 0 -2 -160 -3 -160 -100 160 -100
160 -37 0 -38 0 0 -215z"/>
<path d="M6470 11405 l0 -215 161 0 160 0 -3 28 -3 27 -127 3 -128 3 0 64 0
65 115 0 115 0 0 30 0 30 -115 0 -115 0 0 60 0 60 125 0 125 0 0 30 0 30 -155
0 -155 0 0 -215z"/>
<path d="M7440 11405 l0 -215 30 0 30 0 0 215 0 215 -30 0 -30 0 0 -215z"/>
<path d="M7600 11405 l0 -215 30 0 30 0 0 215 0 215 -30 0 -30 0 0 -215z"/>
<path d="M7770 11405 l0 -215 30 0 30 0 0 215 0 215 -30 0 -30 0 0 -215z"/>
<path d="M3548 11548 c-2 -36 -7 -44 -25 -46 -15 -2 -23 -10 -23 -22 0 -12 8
-20 23 -22 21 -3 22 -7 25 -122 1 -67 7 -126 14 -133 6 -7 28 -13 49 -13 35 0
39 3 39 24 0 18 -6 25 -22 28 -22 3 -23 7 -23 108 0 101 1 105 23 108 14 2 22
10 22 22 0 12 -8 20 -22 22 -19 2 -24 10 -26 46 -3 37 -6 42 -27 42 -21 0 -24
-5 -27 -42z"/>
<path d="M2464 11491 c-17 -10 -39 -35 -48 -56 -23 -48 -24 -141 -2 -184 33
-64 116 -88 191 -57 95 40 112 212 30 285 -30 26 -44 31 -88 31 -33 0 -63 -7
-83 -19z m135 -55 c28 -29 36 -80 22 -133 -27 -99 -139 -98 -161 2 -11 51 5
120 33 140 32 23 80 19 106 -9z"/>
<path d="M2826 11489 c-21 -17 -26 -18 -26 -5 0 10 -9 16 -25 16 l-25 0 0
-155 0 -155 25 0 c25 0 25 1 25 89 0 124 21 170 78 171 18 0 22 6 22 30 0 25
-4 30 -24 30 -13 0 -35 -9 -50 -21z"/>
<path d="M2998 11494 c-47 -25 -66 -84 -27 -84 12 0 30 11 41 25 33 43 128 28
128 -20 0 -21 -18 -29 -93 -42 -38 -6 -77 -19 -87 -28 -44 -40 -32 -123 21
-150 38 -20 77 -19 121 5 24 13 39 16 44 9 9 -15 52 -29 69 -23 19 8 20 44 1
44 -22 0 -26 23 -26 136 l0 104 -32 20 c-40 24 -120 26 -160 4z m142 -178 c0
-60 -89 -108 -130 -71 -38 34 -16 71 50 84 74 14 80 13 80 -13z"/>
<path d="M4400 11503 c-8 -3 -23 -12 -32 -21 -16 -14 -18 -13 -18 1 0 11 -8
17 -25 17 l-25 0 0 -155 0 -155 24 0 c24 0 24 1 28 111 3 107 4 112 31 135 33
29 68 31 90 6 14 -15 17 -41 17 -135 l0 -117 30 0 30 0 0 125 c0 134 -8 166
-47 184 -25 11 -77 13 -103 4z"/>
<path d="M3410 11345 l0 -155 25 0 25 0 0 155 0 155 -25 0 -25 0 0 -155z"/>
<path d="M3680 11488 c1 -7 25 -78 54 -158 49 -132 52 -147 40 -175 -9 -23
-20 -31 -43 -33 -25 -3 -31 -8 -31 -27 0 -29 19 -36 63 -24 42 11 60 46 135
255 28 76 54 147 58 157 6 16 2 18 -26 15 -33 -3 -34 -5 -69 -110 -20 -59 -38
-109 -41 -112 -3 -3 -23 46 -44 109 -36 112 -38 115 -67 115 -17 0 -29 -5 -29
-12z"/>
<path d="M4170 11345 l0 -155 25 0 25 0 0 155 0 155 -25 0 -25 0 0 -155z"/>
<path d="M1910 10720 l0 -170 25 0 c14 0 25 5 25 10 0 6 12 3 26 -6 37 -25 91
-9 121 35 34 50 32 138 -3 180 -22 27 -33 31 -73 31 -26 0 -52 -5 -59 -12 -9
-9 -12 1 -12 45 0 54 -1 57 -25 57 l-25 0 0 -170z m156 15 c21 -33 20 -102 -2
-126 -24 -26 -69 -24 -88 3 -23 33 -21 103 4 128 28 28 66 26 86 -5z"/>
<path d="M3030 10720 c0 -163 1 -170 20 -170 19 0 20 7 20 170 0 163 -1 170
-20 170 -19 0 -20 -7 -20 -170z"/>
<path d="M3152 10878 c-7 -7 -12 -26 -12 -44 0 -23 -5 -33 -20 -37 -11 -3 -20
-12 -20 -21 0 -9 8 -16 20 -16 19 0 20 -7 20 -105 0 -98 1 -105 20 -105 19 0
20 7 20 105 0 98 1 105 20 105 13 0 20 7 20 20 0 14 -7 20 -21 20 -15 0 -19 4
-15 16 3 9 6 20 6 25 0 5 7 9 15 9 8 0 15 9 15 20 0 15 -7 20 -28 20 -15 0
-33 -5 -40 -12z"/>
<path d="M4870 10720 l0 -170 25 0 25 0 0 170 0 170 -25 0 -25 0 0 -170z"/>
<path d="M5350 10720 c0 -160 1 -170 19 -170 16 0 19 10 23 85 5 91 22 125 63
125 38 0 45 -19 45 -117 l0 -93 26 0 26 0 -4 111 c-3 96 -6 113 -22 125 -23
16 -102 19 -111 4 -15 -24 -25 -6 -25 45 0 48 -2 55 -20 55 -19 0 -20 -7 -20
-170z"/>
<path d="M6130 10720 c0 -163 1 -170 20 -170 19 0 20 7 20 170 0 163 -1 170
-20 170 -19 0 -20 -7 -20 -170z"/>
<path d="M6360 10720 c0 -160 1 -170 19 -170 16 0 19 10 23 85 5 91 22 125 63
125 38 0 45 -19 45 -117 l0 -93 26 0 26 0 -4 111 c-3 96 -6 113 -22 125 -23
16 -102 19 -111 4 -15 -24 -25 -6 -25 45 0 48 -2 55 -20 55 -19 0 -20 -7 -20
-170z"/>
<path d="M6750 10865 c0 -18 5 -25 20 -25 15 0 20 7 20 25 0 18 -5 25 -20 25
-15 0 -20 -7 -20 -25z"/>
<path d="M8690 10720 c0 -163 1 -170 20 -170 19 0 20 7 20 170 0 163 -1 170
-20 170 -19 0 -20 -7 -20 -170z"/>
<path d="M9900 10720 c0 -163 1 -170 20 -170 19 0 20 7 20 170 0 163 -1 170
-20 170 -19 0 -20 -7 -20 -170z"/>
<path d="M10000 10720 c0 -163 1 -170 20 -170 19 0 20 7 20 170 0 163 -1 170
-20 170 -19 0 -20 -7 -20 -170z"/>
<path d="M4490 10835 c0 -28 -4 -35 -20 -35 -26 0 -27 -36 0 -43 17 -4 20 -15
22 -103 l3 -99 38 -3 c31 -3 37 0 37 16 0 11 -9 22 -20 25 -18 5 -20 14 -20
86 0 74 2 81 20 81 13 0 20 7 20 20 0 13 -7 20 -20 20 -16 0 -20 7 -20 35 0
28 -4 35 -20 35 -16 0 -20 -7 -20 -35z"/>
<path d="M6240 10835 c0 -28 -4 -35 -20 -35 -26 0 -27 -36 0 -43 17 -4 20 -15
22 -103 l3 -99 38 -3 c31 -3 37 0 37 16 0 11 -9 22 -20 25 -18 5 -20 14 -20
86 0 74 2 81 20 81 13 0 20 7 20 20 0 13 -7 20 -20 20 -16 0 -20 7 -20 35 0
28 -4 35 -20 35 -16 0 -20 -7 -20 -35z"/>
<path d="M10630 10835 c0 -28 -4 -35 -20 -35 -26 0 -27 -36 0 -43 17 -4 20
-15 22 -103 l3 -99 38 -3 c31 -3 37 0 37 16 0 11 -9 22 -20 25 -18 5 -20 14
-20 86 0 74 2 81 20 81 13 0 20 7 20 20 0 13 -7 20 -20 20 -16 0 -20 7 -20 35
0 28 -4 35 -20 35 -16 0 -20 -7 -20 -35z"/>
<path d="M4120 10796 c-51 -17 -74 -56 -75 -126 0 -96 56 -146 143 -124 70 17
107 127 68 202 -24 46 -82 66 -136 48z m82 -53 c29 -26 25 -107 -7 -138 -13
-14 -31 -25 -40 -25 -30 0 -65 46 -65 85 0 37 14 74 34 87 19 13 59 9 78 -9z"/>
<path d="M9473 10803 c-34 -7 -71 -58 -79 -108 -13 -93 45 -165 122 -150 42 7
84 45 84 75 0 29 -34 26 -54 -5 -36 -55 -106 -19 -106 53 0 81 68 124 106 67
20 -31 54 -34 54 -5 0 24 -42 70 -64 70 -8 0 -20 2 -28 4 -7 2 -23 1 -35 -1z"/>
<path d="M11710 10796 c-51 -17 -74 -56 -75 -126 0 -96 56 -146 143 -124 70
17 107 127 68 202 -24 46 -82 66 -136 48z m82 -53 c29 -26 25 -107 -7 -138
-13 -14 -31 -25 -40 -25 -30 0 -65 46 -65 85 0 37 14 74 34 87 19 13 59 9 78
-9z"/>
<path d="M11970 10796 c-51 -17 -74 -56 -75 -126 0 -96 56 -146 143 -124 70
17 107 127 68 202 -24 46 -82 66 -136 48z m82 -53 c29 -26 25 -107 -7 -138
-13 -14 -31 -25 -40 -25 -30 0 -65 46 -65 85 0 37 14 74 34 87 19 13 59 9 78
-9z"/>
<path d="M2155 10783 c4 -10 25 -69 47 -131 39 -108 39 -113 24 -137 -9 -14
-24 -24 -34 -23 -21 4 -28 -30 -8 -38 28 -11 65 5 80 34 14 28 116 298 116
308 0 3 -12 4 -27 2 -24 -3 -29 -12 -56 -91 -16 -49 -31 -86 -33 -84 -3 2 -17
42 -33 88 -25 76 -30 84 -56 87 -23 3 -27 1 -20 -15z"/>
<path d="M2552 10777 c-27 -28 -28 -68 -4 -90 10 -10 42 -24 71 -33 58 -17 75
-39 46 -60 -29 -21 -61 -17 -83 11 -11 14 -30 25 -42 25 -17 0 -20 -4 -15 -22
14 -46 42 -63 101 -63 49 0 59 4 80 28 45 53 22 97 -66 125 -43 13 -55 22 -55
37 0 29 58 33 82 6 20 -24 53 -28 53 -7 0 7 -9 25 -21 40 -17 22 -28 26 -73
26 -42 0 -57 -5 -74 -23z"/>
<path d="M2804 10782 c-31 -25 -46 -58 -46 -107 -2 -82 42 -135 110 -135 35 0
92 37 103 68 7 19 5 22 -16 22 -13 0 -28 -6 -32 -14 -23 -39 -92 -39 -107 -1
-16 41 -9 45 79 45 l85 0 0 31 c0 66 -43 109 -110 109 -28 0 -53 -7 -66 -18z
m110 -44 c9 -12 16 -26 16 -30 0 -5 -27 -8 -60 -8 -64 0 -73 9 -43 42 23 25
68 23 87 -4z"/>
<path d="M3390 10675 c0 -118 1 -125 20 -125 18 0 20 7 20 65 0 86 20 135 54
135 21 0 26 5 26 25 0 30 -33 35 -62 8 -17 -15 -18 -15 -18 0 0 10 -8 17 -20
17 -19 0 -20 -7 -20 -125z"/>
<path d="M3584 10782 c-31 -25 -46 -58 -46 -107 -2 -82 42 -135 110 -135 35 0
92 37 103 68 7 19 5 22 -16 22 -13 0 -28 -6 -32 -14 -23 -39 -92 -39 -107 -1
-16 41 -9 45 79 45 l85 0 0 31 c0 66 -43 109 -110 109 -28 0 -53 -7 -66 -18z
m110 -44 c9 -12 16 -26 16 -30 0 -5 -27 -8 -60 -8 -64 0 -73 9 -43 42 23 25
68 23 87 -4z"/>
<path d="M3804 10787 c-2 -7 -3 -85 -2 -172 3 -157 3 -160 26 -163 21 -3 22 0
22 58 l0 60 25 -16 c33 -21 84 -12 116 22 19 20 24 38 27 92 4 64 2 70 -26
100 -23 25 -38 32 -67 32 -20 0 -45 -5 -56 -10 -13 -7 -19 -7 -19 0 0 15 -40
12 -46 -3z m150 -46 c23 -26 24 -106 1 -131 -27 -30 -55 -31 -82 -4 -22 22
-25 32 -21 76 6 55 25 78 63 78 12 0 30 -9 39 -19z"/>
<path d="M4320 10675 c0 -118 1 -125 20 -125 18 0 20 7 20 65 0 86 20 135 54
135 21 0 26 5 26 25 0 30 -33 35 -62 8 -17 -15 -18 -15 -18 0 0 10 -8 17 -20
17 -19 0 -20 -7 -20 -125z"/>
<path d="M4630 10771 c0 -27 4 -31 26 -31 22 0 25 4 22 28 -2 19 -9 28 -25 30
-20 3 -23 -1 -23 -27z"/>
<path d="M5002 10777 c-27 -28 -28 -68 -4 -90 10 -10 42 -24 71 -33 58 -17 75
-39 46 -60 -29 -21 -61 -17 -83 11 -11 14 -30 25 -42 25 -17 0 -20 -4 -15 -22
14 -46 42 -63 101 -63 49 0 59 4 80 28 45 53 22 97 -66 125 -43 13 -55 22 -55
37 0 29 58 33 82 6 20 -24 53 -28 53 -7 0 7 -9 25 -21 40 -17 22 -28 26 -73
26 -42 0 -57 -5 -74 -23z"/>
<path d="M5644 10782 c-31 -25 -46 -58 -46 -107 -2 -82 42 -135 110 -135 35 0
92 37 103 68 7 19 5 22 -16 22 -13 0 -28 -6 -32 -14 -23 -39 -92 -39 -107 -1
-16 41 -9 45 79 45 l85 0 0 31 c0 66 -43 109 -110 109 -28 0 -53 -7 -66 -18z
m110 -44 c9 -12 16 -26 16 -30 0 -5 -27 -8 -60 -8 -64 0 -73 9 -43 42 23 25
68 23 87 -4z"/>
<path d="M5905 10788 c-25 -14 -35 -28 -35 -50 0 -25 37 -23 50 3 9 16 19 19
47 17 35 -3 65 -29 50 -44 -3 -4 -30 -11 -58 -15 -75 -12 -99 -31 -99 -79 0
-65 67 -100 129 -66 20 11 28 11 49 0 27 -14 52 -9 52 11 0 7 -7 15 -15 19
-12 4 -15 25 -15 95 0 82 -2 91 -22 105 -26 19 -104 21 -133 4z m115 -136 c0
-45 -65 -87 -96 -61 -17 14 -18 45 -2 55 10 6 52 17 91 23 4 0 7 -7 7 -17z"/>
<path d="M6750 10675 c0 -118 1 -125 20 -125 19 0 20 7 20 125 0 118 -1 125
-20 125 -19 0 -20 -7 -20 -125z"/>
<path d="M6850 10675 c0 -116 1 -125 19 -125 17 0 19 9 22 84 4 91 22 126 64
126 38 0 45 -19 45 -117 l0 -93 26 0 26 0 -4 111 c-3 96 -6 113 -22 125 -27
19 -95 18 -118 -3 -17 -15 -18 -15 -18 0 0 10 -8 17 -20 17 -19 0 -20 -7 -20
-125z"/>
<path d="M7260 10772 c-52 -53 -50 -170 5 -206 29 -19 96 -21 113 -4 9 9 12 6
12 -14 0 -56 -63 -77 -106 -37 -23 21 -54 20 -54 -1 0 -6 11 -22 25 -35 19
-19 35 -25 70 -25 99 0 115 31 115 215 0 126 -1 135 -19 135 -11 0 -21 -5 -23
-11 -3 -9 -9 -9 -25 0 -38 20 -82 13 -113 -17z m114 -34 c21 -30 21 -106 -1
-130 -40 -44 -103 -8 -103 60 0 79 67 124 104 70z"/>
<path d="M7534 10782 c-31 -25 -46 -58 -46 -107 -2 -82 42 -135 110 -135 35 0
92 37 103 68 7 19 5 22 -16 22 -13 0 -28 -6 -32 -14 -23 -39 -92 -39 -107 -1
-16 41 -9 45 79 45 l85 0 0 31 c0 66 -43 109 -110 109 -28 0 -53 -7 -66 -18z
m110 -44 c9 -12 16 -26 16 -30 0 -5 -27 -8 -60 -8 -64 0 -73 9 -43 42 23 25
68 23 87 -4z"/>
<path d="M7760 10675 c0 -116 1 -125 19 -125 17 0 19 9 22 84 4 91 22 126 64
126 38 0 45 -19 45 -117 l0 -93 26 0 26 0 -4 111 c-3 96 -6 113 -22 125 -27
19 -95 18 -118 -3 -17 -15 -18 -15 -18 0 0 10 -8 17 -20 17 -19 0 -20 -7 -20
-125z"/>
<path d="M8044 10782 c-31 -25 -46 -58 -46 -107 -2 -82 42 -135 110 -135 35 0
92 37 103 68 7 19 5 22 -16 22 -13 0 -28 -6 -32 -14 -23 -39 -92 -39 -107 -1
-16 41 -9 45 79 45 l85 0 0 31 c0 66 -43 109 -110 109 -28 0 -53 -7 -66 -18z
m110 -44 c9 -12 16 -26 16 -30 0 -5 -27 -8 -60 -8 -64 0 -73 9 -43 42 23 25
68 23 87 -4z"/>
<path d="M8270 10675 c0 -118 1 -125 20 -125 18 0 20 7 20 65 0 86 20 135 54
135 21 0 26 5 26 25 0 30 -33 35 -62 8 -17 -15 -18 -15 -18 0 0 10 -8 17 -20
17 -19 0 -20 -7 -20 -125z"/>
<path d="M8465 10788 c-25 -14 -35 -28 -35 -50 0 -25 37 -23 50 3 9 16 19 19
47 17 35 -3 65 -29 50 -44 -3 -4 -30 -11 -58 -15 -75 -12 -99 -31 -99 -79 0
-65 67 -100 129 -66 20 11 28 11 49 0 27 -14 52 -9 52 11 0 7 -7 15 -15 19
-12 4 -15 25 -15 95 0 82 -2 91 -22 105 -26 19 -104 21 -133 4z m115 -136 c0
-45 -65 -87 -96 -61 -17 14 -18 45 -2 55 10 6 52 17 91 23 4 0 7 -7 7 -17z"/>
<path d="M8954 10782 c-31 -25 -46 -58 -46 -107 -2 -82 42 -135 110 -135 35 0
92 37 103 68 7 19 5 22 -16 22 -13 0 -28 -6 -32 -14 -23 -39 -92 -39 -107 -1
-16 41 -9 45 79 45 l85 0 0 31 c0 66 -43 109 -110 109 -28 0 -53 -7 -66 -18z
m110 -44 c9 -12 16 -26 16 -30 0 -5 -27 -8 -60 -8 -64 0 -73 9 -43 42 23 25
68 23 87 -4z"/>
<path d="M9160 10792 c0 -4 16 -31 36 -60 l36 -54 -41 -61 -41 -62 27 -3 c20
-3 32 3 43 19 43 65 43 65 73 20 22 -33 33 -41 58 -41 l30 0 -41 59 c-22 33
-40 64 -40 69 0 5 16 31 35 58 42 58 43 64 10 64 -18 0 -32 -11 -51 -40 -15
-22 -28 -40 -29 -40 -1 0 -14 18 -29 40 -19 29 -33 40 -51 40 -14 0 -25 -3
-25 -8z"/>
<path d="M9674 10782 c-31 -25 -46 -58 -46 -107 -2 -82 42 -135 110 -135 35 0
92 37 103 68 7 19 5 22 -16 22 -13 0 -28 -6 -32 -14 -23 -39 -92 -39 -107 -1
-16 41 -9 45 79 45 l85 0 0 31 c0 66 -43 109 -110 109 -28 0 -53 -7 -66 -18z
m110 -44 c9 -12 16 -26 16 -30 0 -5 -27 -8 -60 -8 -64 0 -73 9 -43 42 23 25
68 23 87 -4z"/>
<path d="M10144 10782 c-31 -25 -46 -58 -46 -107 -2 -82 42 -135 110 -135 35
0 92 37 103 68 7 19 5 22 -16 22 -13 0 -28 -6 -32 -14 -23 -39 -92 -39 -107
-1 -16 41 -9 45 79 45 l85 0 0 31 c0 66 -43 109 -110 109 -28 0 -53 -7 -66
-18z m110 -44 c9 -12 16 -26 16 -30 0 -5 -27 -8 -60 -8 -64 0 -73 9 -43 42 23
25 68 23 87 -4z"/>
<path d="M10360 10675 c0 -116 1 -125 19 -125 17 0 19 9 22 84 4 91 22 126 64
126 38 0 45 -19 45 -117 l0 -93 26 0 26 0 -4 111 c-3 96 -6 113 -22 125 -27
19 -95 18 -118 -3 -17 -15 -18 -15 -18 0 0 10 -8 17 -20 17 -19 0 -20 -7 -20
-125z"/>
<path d="M11394 10787 c-2 -7 -3 -85 -2 -172 3 -157 3 -160 26 -163 21 -3 22
0 22 58 l0 60 25 -16 c33 -21 84 -12 116 22 19 20 24 38 27 92 4 64 2 70 -26
100 -23 25 -38 32 -67 32 -20 0 -45 -5 -56 -10 -13 -7 -19 -7 -19 0 0 15 -40
12 -46 -3z m150 -46 c23 -26 24 -106 1 -131 -27 -30 -55 -31 -82 -4 -22 22
-25 32 -21 76 6 55 25 78 63 78 12 0 30 -9 39 -19z"/>
<path d="M12170 10675 c0 -118 1 -125 20 -125 18 0 20 7 20 65 0 86 20 135 54
135 21 0 26 5 26 25 0 30 -33 35 -62 8 -17 -15 -18 -15 -18 0 0 10 -8 17 -20
17 -19 0 -20 -7 -20 -125z"/>
<path d="M4637 10603 c-4 -3 -7 -17 -7 -30 0 -18 5 -23 25 -23 21 0 25 5 25
30 0 22 -5 30 -18 30 -10 0 -22 -3 -25 -7z"/>
<path d="M10760 10581 c0 -16 5 -31 11 -33 9 -3 9 -10 0 -27 -19 -34 -8 -48
17 -23 16 16 22 34 22 67 0 41 -2 45 -25 45 -21 0 -25 -5 -25 -29z"/>
<path d="M10897 10603 c-4 -3 -7 -17 -7 -30 0 -18 5 -23 25 -23 21 0 25 5 25
30 0 22 -5 30 -18 30 -10 0 -22 -3 -25 -7z"/>
<path d="M11027 10603 c-4 -3 -7 -17 -7 -30 0 -18 5 -23 25 -23 21 0 25 5 25
30 0 22 -5 30 -18 30 -10 0 -22 -3 -25 -7z"/>
<path d="M11157 10603 c-4 -3 -7 -17 -7 -30 0 -18 5 -23 25 -23 21 0 25 5 25
30 0 22 -5 30 -18 30 -10 0 -22 -3 -25 -7z"/>
<path d="M11280 10581 c0 -16 5 -31 11 -33 9 -3 9 -10 0 -27 -19 -34 -8 -48
17 -23 16 16 22 34 22 67 0 41 -2 45 -25 45 -21 0 -25 -5 -25 -29z"/>
<path d="M1810 10125 l0 -254 -77 -3 c-44 -2 -78 -7 -78 -13 0 -6 34 -11 78
-13 l77 -3 0 -919 0 -920 -80 0 c-47 0 -80 -4 -80 -10 0 -6 33 -10 80 -10 l80
0 0 -920 0 -920 -80 0 c-47 0 -80 -4 -80 -10 0 -6 33 -10 80 -10 l80 0 0 -920
0 -920 -80 0 c-47 0 -80 -4 -80 -10 0 -6 33 -10 80 -10 l80 0 0 -920 0 -919
-77 -3 c-44 -2 -78 -7 -78 -13 0 -6 34 -11 77 -13 l77 -3 3 -127 3 -127 133
-3 132 -3 0 -79 c0 -103 18 -105 22 -2 l3 77 2228 3 2227 2 0 -80 c0 -103 18
-105 22 -2 l3 77 2228 3 2227 2 0 -80 c0 -103 18 -105 22 -2 l3 77 2228 3
2227 2 0 -80 c0 -103 18 -105 22 -2 l3 77 368 3 c233 1 367 6 367 12 0 7
-2473 10 -7220 10 l-7220 0 0 4115 c0 3651 -2 4115 -15 4115 -13 0 -15 -35
-15 -255z"/>
<path d="M1970 8660 l0 -1570 1995 0 1995 0 0 1570 0 1570 -1995 0 -1995 0 0
-1570z m3970 0 l0 -1550 -1972 2 -1973 3 -3 1548 -2 1547 1975 0 1975 0 0
-1550z"/>
<path d="M4017 9973 c-4 -3 -7 -73 -7 -155 l0 -148 25 0 c24 0 25 2 25 65 l0
65 65 0 c57 0 69 3 90 25 17 17 25 35 25 60 0 49 -13 71 -51 84 -35 12 -161
15 -172 4z m163 -53 c43 -43 13 -80 -66 -80 l-54 0 0 50 0 50 50 0 c37 0 55
-5 70 -20z"/>
<path d="M4307 9874 c-66 -66 -37 -194 47 -210 67 -12 126 43 126 119 0 72
-40 116 -106 117 -31 0 -48 -6 -67 -26z m113 -30 c20 -23 17 -100 -5 -124 -54
-60 -126 22 -91 104 13 31 19 36 49 36 19 0 40 -7 47 -16z"/>
<path d="M4547 9874 c-66 -66 -37 -194 47 -210 67 -12 126 43 126 119 0 72
-40 116 -106 117 -31 0 -48 -6 -67 -26z m113 -30 c20 -23 17 -100 -5 -124 -54
-60 -126 22 -91 104 13 31 19 36 49 36 19 0 40 -7 47 -16z"/>
<path d="M4760 9785 c0 -108 1 -115 20 -115 17 0 19 8 22 83 3 82 3 82 36 96
19 9 32 22 32 33 0 20 -21 23 -50 8 -13 -7 -21 -7 -25 0 -3 5 -13 10 -21 10
-11 0 -14 -22 -14 -115z"/>
<path d="M4010 9236 l0 -156 80 0 c97 0 134 15 149 63 13 39 1 84 -24 93 -13
5 -13 8 0 27 20 29 19 70 -4 98 -16 20 -29 23 -110 27 l-91 4 0 -156z m161 93
c18 -18 19 -23 6 -42 -11 -18 -26 -23 -71 -25 l-56 -3 0 46 0 45 50 0 c37 0
55 -5 71 -21z m11 -126 c22 -20 23 -41 1 -65 -12 -13 -31 -18 -75 -18 l-58 0
0 50 0 50 57 0 c38 0 62 -5 75 -17z"/>
<path d="M4670 9340 c0 -47 -1 -50 -19 -40 -75 40 -151 -33 -138 -132 10 -73
81 -118 132 -84 14 9 25 12 25 6 0 -5 9 -10 20 -10 19 0 20 7 20 155 0 148 -1
155 -20 155 -17 0 -20 -7 -20 -50z m-16 -92 c31 -44 14 -123 -30 -134 -38 -10
-67 23 -67 75 0 71 62 109 97 59z"/>
<path d="M4320 9297 c-29 -15 -42 -67 -16 -67 8 0 20 9 26 21 16 29 84 24 88
-7 3 -19 -3 -23 -47 -29 -66 -9 -94 -32 -93 -74 0 -18 6 -39 12 -46 19 -23 67
-28 102 -10 21 10 34 12 36 5 6 -16 62 -12 62 4 0 8 -7 16 -15 20 -12 4 -15
23 -15 85 0 71 -2 82 -22 95 -27 19 -84 20 -118 3z m100 -132 c0 -32 -41 -60
-75 -51 -16 4 -25 13 -25 26 0 23 13 32 60 41 19 4 36 7 38 8 1 0 2 -10 2 -24z"/>
<path d="M4017 8793 c-4 -3 -7 -73 -7 -155 l0 -148 25 0 c24 0 25 2 25 70 l0
70 75 0 c68 0 75 2 75 20 0 18 -7 20 -75 20 l-75 0 0 45 0 45 85 0 c78 0 85 2
85 20 0 19 -7 20 -103 20 -57 0 -107 -3 -110 -7z"/>
<path d="M4494 8786 c-8 -21 3 -36 27 -36 15 0 20 6 17 22 -4 27 -35 37 -44
14z"/>
<path d="M4300 8707 c-29 -15 -42 -67 -16 -67 8 0 20 9 26 21 16 29 84 24 88
-7 3 -19 -3 -23 -47 -29 -66 -9 -94 -32 -93 -74 0 -18 6 -39 12 -46 19 -23 67
-28 102 -10 21 10 34 12 36 5 6 -16 62 -12 62 4 0 8 -7 16 -15 20 -12 4 -15
23 -15 85 0 71 -2 82 -22 95 -27 19 -84 20 -118 3z m100 -132 c0 -32 -41 -60
-75 -51 -16 4 -25 13 -25 26 0 23 13 32 60 41 19 4 36 7 38 8 1 0 2 -10 2 -24z"/>
<path d="M4590 8605 c0 -108 1 -115 20 -115 17 0 19 8 22 83 3 82 3 82 36 96
19 9 32 22 32 33 0 20 -21 23 -50 8 -13 -7 -21 -7 -25 0 -3 5 -13 10 -21 10
-11 0 -14 -22 -14 -115z"/>
<path d="M4492 8603 c3 -103 4 -108 26 -111 22 -3 22 -2 22 107 l0 111 -25 0
-26 0 3 -107z"/>
<path d="M2160 8665 c0 -13 94 -15 785 -15 691 0 785 2 785 15 0 13 -94 15
-785 15 -691 0 -785 -2 -785 -15z"/>
<path d="M4109 8210 c-72 -20 -109 -74 -109 -162 0 -124 99 -192 202 -139 30
15 38 16 42 5 3 -8 12 -14 21 -14 12 0 15 15 15 85 l0 85 -70 0 c-63 0 -70 -2
-70 -20 0 -17 7 -20 45 -20 40 0 45 -2 45 -23 0 -52 -74 -90 -127 -65 -37 17
-53 52 -53 115 0 41 5 58 26 82 22 26 33 31 70 31 37 0 47 -5 66 -30 25 -34
58 -40 58 -11 0 52 -93 99 -161 81z"/>
<path d="M4950 8160 c0 -47 -1 -50 -19 -40 -75 40 -151 -33 -138 -132 10 -73
81 -118 132 -84 14 9 25 12 25 6 0 -5 9 -10 20 -10 19 0 20 7 20 155 0 148 -1
155 -20 155 -17 0 -20 -7 -20 -50z m-16 -92 c31 -44 14 -123 -30 -134 -38 -10
-67 23 -67 75 0 71 62 109 97 59z"/>
<path d="M4357 8104 c-66 -66 -37 -194 47 -210 67 -12 126 43 126 119 0 72
-40 116 -106 117 -31 0 -48 -6 -67 -26z m113 -30 c20 -23 17 -100 -5 -124 -54
-60 -126 22 -91 104 13 31 19 36 49 36 19 0 40 -7 47 -16z"/>
<path d="M4587 8104 c-66 -66 -37 -194 47 -210 67 -12 126 43 126 119 0 72
-40 116 -106 117 -31 0 -48 -6 -67 -26z m113 -30 c20 -23 17 -100 -5 -124 -54
-60 -126 22 -91 104 13 31 19 36 49 36 19 0 40 -7 47 -16z"/>
<path d="M2152 8073 c3 -17 50 -18 791 -21 782 -2 787 -2 787 18 0 20 -6 20
-791 20 -747 0 -790 -1 -787 -17z"/>
<path d="M4017 7613 c-4 -3 -7 -73 -7 -155 l0 -148 115 0 c108 0 115 1 115 20
0 19 -7 20 -90 20 l-90 0 0 50 0 50 86 0 c76 0 85 2 82 18 -3 14 -16 17 -86
20 l-82 3 0 44 0 45 90 0 c83 0 90 1 90 20 0 19 -7 20 -108 20 -60 0 -112 -3
-115 -7z"/>
<path d="M4950 7465 c0 -148 1 -155 20 -155 19 0 20 7 20 155 0 148 -1 155
-20 155 -19 0 -20 -7 -20 -155z"/>
<path d="M5040 7465 c0 -148 1 -155 20 -155 19 0 20 7 20 155 0 148 -1 155
-20 155 -19 0 -20 -7 -20 -155z"/>
<path d="M5600 7571 c0 -16 -6 -31 -15 -35 -8 -3 -15 -12 -15 -21 0 -8 7 -15
15 -15 12 0 15 -16 15 -83 0 -91 8 -107 52 -107 33 0 37 20 8 38 -17 10 -20
23 -20 82 0 63 2 70 20 70 12 0 20 7 20 16 0 9 -9 18 -20 21 -14 4 -20 14 -20
34 0 22 -5 29 -20 29 -15 0 -20 -7 -20 -29z"/>
<path d="M4270 7530 c0 -6 14 -29 30 -52 17 -22 30 -45 30 -50 0 -5 -13 -28
-28 -51 -46 -67 -46 -67 -18 -67 18 0 32 10 48 35 13 19 27 35 31 35 4 0 17
-16 28 -35 16 -27 27 -35 50 -35 l30 0 -40 58 -40 59 34 48 c19 26 32 52 29
56 -11 18 -34 8 -61 -27 l-27 -36 -29 36 c-27 33 -67 49 -67 26z"/>
<path d="M4517 7514 c-47 -47 -48 -141 -3 -183 36 -34 103 -32 133 3 13 15 23
34 23 42 0 23 -30 16 -52 -11 -23 -30 -49 -32 -73 -5 -20 22 -23 87 -5 119 14
28 65 28 82 1 16 -26 48 -26 48 -1 0 29 -47 61 -90 61 -27 0 -45 -7 -63 -26z"/>
<path d="M4737 7519 c-56 -43 -56 -160 0 -196 39 -26 96 -23 127 6 14 14 26
30 26 38 0 20 -33 16 -53 -7 -22 -27 -62 -26 -81 2 -30 42 -22 48 64 48 89 0
92 3 69 69 -20 58 -103 80 -152 40z m101 -31 c7 -7 12 -20 12 -30 0 -15 -9
-18 -55 -18 -59 0 -68 10 -38 42 18 20 63 24 81 6z"/>
<path d="M5157 7519 c-56 -43 -56 -160 0 -196 39 -26 96 -23 127 6 14 14 26
30 26 38 0 20 -33 16 -53 -7 -22 -27 -62 -26 -81 2 -30 42 -22 48 64 48 89 0
92 3 69 69 -20 58 -103 80 -152 40z m101 -31 c7 -7 12 -20 12 -30 0 -15 -9
-18 -55 -18 -59 0 -68 10 -38 42 18 20 63 24 81 6z"/>
<path d="M5364 7527 c-2 -7 -3 -58 -2 -113 3 -94 4 -99 26 -102 21 -3 22 -1
22 76 0 86 14 112 59 112 29 0 41 -35 41 -121 0 -63 2 -69 21 -69 20 0 21 4
17 101 -2 86 -6 103 -22 115 -24 17 -69 18 -99 3 -16 -9 -22 -9 -25 0 -5 15
-31 14 -38 -2z"/>
<path d="M2152 7483 c3 -17 50 -18 791 -21 782 -2 787 -2 787 18 0 20 -6 20
-791 20 -747 0 -790 -1 -787 -17z"/>
<path d="M1159 9967 c-38 -29 -49 -79 -23 -108 15 -17 15 -19 0 -34 -46 -46
-23 -126 42 -146 98 -29 185 71 122 139 -19 20 -20 24 -5 44 37 54 -5 118 -79
118 -23 0 -48 -6 -57 -13z m95 -49 c14 -23 -3 -52 -33 -56 -42 -6 -67 38 -39
66 17 17 58 11 72 -10z m-2 -115 c38 -34 15 -93 -38 -93 -24 0 -54 29 -54 53
0 48 56 73 92 40z"/>
<path d="M1380 9952 c-19 -20 -31 -44 -35 -76 -20 -133 35 -222 124 -200 91
23 112 230 30 288 -37 26 -86 21 -119 -12z m104 -34 c11 -15 16 -46 16 -95 0
-60 -4 -77 -20 -93 -24 -24 -39 -25 -66 -6 -16 12 -19 27 -19 101 0 74 3 89
19 101 28 20 53 17 70 -8z"/>
<path d="M1160 8093 c-56 -51 -64 -197 -13 -247 33 -34 74 -41 116 -21 60 28
77 110 32 159 -19 20 -33 26 -68 26 -23 0 -49 -6 -56 -12 -11 -11 -12 -8 -7
17 15 61 72 87 98 45 16 -25 48 -26 48 -2 0 10 -10 28 -23 40 -34 32 -89 29
-127 -5z m106 -152 c16 -32 -1 -79 -31 -87 -53 -13 -91 45 -60 93 22 32 74 29
91 -6z"/>
<path d="M1380 8092 c-19 -20 -31 -44 -35 -76 -20 -133 35 -222 124 -200 91
23 112 230 30 288 -37 26 -86 21 -119 -12z m104 -34 c11 -15 16 -46 16 -95 0
-60 -4 -77 -20 -93 -24 -24 -39 -25 -66 -6 -16 12 -19 27 -19 101 0 74 3 89
19 101 28 20 53 17 70 -8z"/>
<path d="M695 6293 c-96 -176 -90 -163 -72 -163 9 0 48 61 96 149 45 82 81
152 81 155 0 3 -6 6 -12 6 -7 0 -49 -66 -93 -147z"/>
<path d="M551 6404 c-42 -54 -13 -118 54 -118 67 0 96 64 54 118 -15 19 -30
26 -54 26 -24 0 -39 -7 -54 -26z m87 -52 c-2 -23 -8 -27 -33 -27 -24 0 -31 5
-33 24 -5 32 23 54 50 40 13 -7 18 -19 16 -37z"/>
<path d="M15783 6416 c-26 -12 -31 -36 -8 -36 8 0 15 5 15 10 0 6 16 10 35 10
24 0 35 5 35 15 0 18 -43 18 -77 1z"/>
<path d="M15870 6415 c0 -8 7 -15 15 -15 8 0 15 7 15 15 0 8 -7 15 -15 15 -8
0 -15 -7 -15 -15z"/>
<path d="M15910 6415 c0 -8 7 -15 15 -15 8 0 15 7 15 15 0 8 -7 15 -15 15 -8
0 -15 -7 -15 -15z"/>
<path d="M15950 6415 c0 -10 10 -15 30 -15 20 0 30 5 30 15 0 10 -10 15 -30
15 -20 0 -30 -5 -30 -15z"/>
<path d="M15710 6400 c-8 -5 -25 -10 -37 -10 -13 0 -23 -4 -23 -10 0 -11 42
-13 78 -4 12 4 22 13 22 20 0 16 -18 18 -40 4z"/>
<path d="M15583 6379 c-18 -5 -34 -13 -38 -18 -3 -5 -14 -7 -25 -4 -11 3 -20
0 -20 -6 0 -6 -9 -11 -20 -11 -11 0 -20 -4 -20 -10 0 -5 -3 -9 -7 -9 -32 5
-66 -5 -86 -25 -36 -36 -62 -46 -117 -47 -34 -1 -50 -6 -50 -15 0 -8 13 -13
33 -13 66 0 103 11 136 39 18 17 44 30 57 30 13 0 24 5 24 10 0 6 9 10 20 10
11 0 20 4 20 8 0 4 17 9 37 10 21 2 47 12 59 22 11 11 28 20 37 20 9 0 17 5
17 10 0 12 -13 12 -57 -1z"/>
<path d="M773 6278 c-48 -23 -51 -103 -4 -127 78 -42 154 64 85 118 -29 23
-48 25 -81 9z m67 -49 c15 -27 -5 -51 -39 -47 -29 3 -39 31 -21 53 18 21 48
18 60 -6z"/>
<path d="M1176 6168 c-36 -51 -66 -103 -66 -115 0 -22 4 -23 65 -23 l65 0 0
-35 c0 -28 4 -35 20 -35 16 0 20 7 20 35 0 28 4 35 20 35 13 0 20 7 20 20 0
13 -7 20 -20 20 -19 0 -20 7 -20 95 0 87 -2 95 -19 95 -13 0 -41 -31 -85 -92z
m64 -43 l0 -55 -40 0 c-22 0 -40 3 -40 8 1 9 68 102 75 102 3 0 5 -25 5 -55z"/>
<path d="M1380 6232 c-19 -20 -31 -44 -35 -76 -20 -133 35 -222 124 -200 91
23 112 230 30 288 -37 26 -86 21 -119 -12z m104 -34 c11 -15 16 -46 16 -95 0
-60 -4 -77 -20 -93 -24 -24 -39 -25 -66 -6 -16 12 -19 27 -19 101 0 74 3 89
19 101 28 20 53 17 70 -8z"/>
<path d="M15160 6230 c0 -5 -16 -10 -35 -10 -24 0 -35 -5 -35 -15 0 -18 36
-20 73 -2 29 13 37 37 12 37 -8 0 -15 -4 -15 -10z"/>
<path d="M14943 6197 c-24 -6 -43 -13 -43 -17 0 -9 -67 -24 -92 -21 -10 1 -18
-3 -18 -8 0 -6 -7 -11 -15 -11 -15 0 -86 -31 -95 -41 -3 -3 -30 -12 -60 -19
-30 -7 -65 -18 -77 -26 -12 -7 -41 -15 -65 -18 -66 -6 -98 -17 -98 -32 0 -17
4 -17 55 -2 22 6 50 11 63 10 12 -1 22 3 22 8 0 6 3 9 8 8 7 -2 80 21 97 31 6
3 18 4 28 3 9 -2 17 1 17 6 0 5 16 13 35 16 19 4 35 11 35 16 0 6 9 10 19 10
11 0 21 4 23 10 2 5 24 11 49 13 25 3 60 12 78 21 18 10 54 20 82 23 30 4 49
11 49 19 0 15 -34 15 -97 1z"/>
<path d="M15050 6195 c0 -8 7 -15 15 -15 8 0 15 7 15 15 0 8 -7 15 -15 15 -8
0 -15 -7 -15 -15z"/>
<path d="M14338 6014 c-3 -3 -20 -6 -37 -6 -17 -1 -31 -5 -31 -10 0 -5 -4 -7
-9 -3 -16 9 -104 -17 -125 -37 -19 -17 -41 -22 -78 -19 -10 1 -18 -1 -18 -6 0
-4 -14 -9 -31 -9 -17 -1 -34 -5 -38 -10 -3 -5 -22 -10 -41 -12 -19 -1 -47 -9
-63 -17 -16 -8 -66 -24 -111 -36 -44 -12 -83 -25 -86 -29 -3 -3 -45 -17 -95
-30 -49 -13 -92 -27 -95 -30 -3 -4 -61 -22 -130 -40 -69 -18 -127 -37 -128
-42 -2 -4 -8 -6 -13 -3 -4 3 -33 -1 -62 -10 -30 -9 -70 -17 -88 -19 -56 -6
-99 -18 -99 -28 0 -5 -4 -7 -10 -3 -15 9 -140 -28 -140 -42 0 -7 7 -13 15 -13
8 0 15 5 15 11 0 5 4 8 9 5 5 -4 53 6 108 21 54 14 108 26 121 25 12 -1 22 3
22 9 0 5 4 8 10 4 11 -7 284 65 288 77 2 4 19 8 37 8 19 0 36 4 39 9 3 5 37
17 76 26 38 9 70 21 70 26 0 4 7 6 16 2 9 -3 19 -2 23 4 3 5 36 17 74 27 37
10 70 22 72 27 3 4 13 5 21 2 9 -3 19 -2 23 4 8 13 209 67 239 65 12 -1 22 3
22 8 0 5 7 7 14 4 8 -3 25 4 37 15 13 12 31 21 41 21 10 0 18 3 18 8 0 4 12 7
28 8 67 2 122 16 122 30 0 14 -21 19 -32 8z"/>
<path d="M15500 5810 c0 -5 -9 -10 -20 -10 -11 0 -20 -4 -20 -9 0 -5 -9 -7
-20 -4 -11 3 -20 0 -20 -6 0 -6 -14 -11 -31 -11 -17 0 -37 -7 -45 -15 -9 -8
-29 -15 -45 -15 -16 0 -29 -4 -29 -9 0 -14 -77 -41 -118 -41 -47 0 -182 -31
-182 -42 0 -4 -6 -8 -14 -8 -8 0 -16 -5 -18 -10 -2 -6 -44 -18 -93 -26 -50 -9
-93 -20 -96 -25 -8 -13 -106 -35 -191 -44 -38 -4 -68 -11 -68 -16 0 -5 -12 -9
-27 -9 -35 0 -197 -41 -201 -52 -2 -4 -19 -10 -38 -14 -19 -3 -34 -10 -34 -15
0 -5 -16 -9 -35 -9 -22 0 -44 -8 -57 -19 -11 -11 -39 -22 -62 -26 -67 -10
-144 -25 -256 -50 -58 -13 -140 -31 -182 -40 -43 -9 -78 -20 -78 -24 0 -4 -25
-14 -55 -21 -30 -7 -55 -17 -55 -22 0 -4 -8 -8 -18 -8 -10 0 -22 -4 -28 -9
-11 -10 -107 -41 -128 -41 -9 0 -16 -4 -16 -9 0 -4 -24 -11 -52 -14 -29 -4
-54 -11 -56 -17 -2 -5 -21 -10 -43 -10 -21 0 -39 -4 -39 -8 0 -5 -24 -14 -52
-21 -29 -8 -70 -22 -91 -33 -21 -11 -56 -20 -78 -20 -21 0 -39 -4 -39 -8 0 -3
-34 -15 -75 -25 -41 -11 -75 -22 -75 -25 0 -7 -110 -36 -122 -32 -4 1 -65 -14
-135 -34 -70 -19 -143 -38 -160 -41 -18 -3 -33 -9 -33 -14 0 -5 -12 -9 -27 -9
-16 0 -53 -7 -83 -15 -30 -8 -72 -15 -92 -15 -64 0 -353 -68 -405 -95 -15 -8
-41 -15 -57 -15 -31 0 -108 -20 -116 -30 -5 -7 -89 -27 -225 -55 -44 -9 -127
-27 -185 -40 -58 -14 -124 -27 -147 -31 -24 -3 -43 -10 -43 -14 0 -5 -16 -12
-35 -16 -19 -3 -35 -10 -35 -14 0 -8 -82 -27 -160 -36 -63 -7 -168 -35 -221
-58 -20 -8 -67 -20 -105 -26 -38 -6 -71 -14 -74 -19 -6 -9 -201 -61 -228 -61
-11 0 -33 -7 -48 -15 -16 -8 -37 -15 -46 -15 -10 0 -18 -4 -18 -9 0 -4 -19
-11 -42 -14 -141 -19 -242 -37 -308 -56 -41 -12 -87 -21 -102 -21 -16 0 -28
-4 -28 -9 0 -4 -28 -14 -62 -20 -35 -7 -83 -16 -108 -21 -25 -5 -64 -12 -87
-15 -24 -4 -43 -11 -43 -16 0 -6 -4 -7 -10 -4 -10 6 -327 -76 -373 -97 -15 -7
-27 -16 -27 -20 0 -5 -9 -8 -20 -8 -11 0 -20 -4 -20 -10 0 -5 -12 -10 -27 -10
-16 0 -61 -9 -102 -20 -41 -11 -87 -20 -103 -20 -15 0 -28 -4 -28 -9 0 -5 -23
-11 -51 -13 -28 -3 -55 -11 -59 -18 -5 -7 -41 -16 -86 -20 -94 -10 -144 -20
-144 -30 0 -4 -14 -10 -31 -14 -17 -3 -45 -12 -62 -20 -18 -7 -61 -19 -97 -26
-36 -6 -68 -16 -71 -21 -3 -6 -44 -14 -90 -19 -46 -5 -111 -18 -144 -30 -33
-12 -94 -31 -135 -43 -41 -11 -77 -24 -80 -28 -7 -9 -71 -23 -92 -20 -10 1
-18 -2 -18 -7 0 -13 -37 -27 -160 -61 -58 -16 -118 -34 -135 -40 -16 -5 -58
-16 -92 -22 -35 -6 -63 -16 -63 -20 0 -5 -16 -9 -35 -9 -19 0 -35 -4 -35 -10
0 -5 -18 -10 -39 -10 -22 0 -41 -5 -43 -10 -2 -6 -27 -13 -56 -17 -28 -3 -52
-10 -52 -14 0 -5 -25 -9 -55 -9 -30 0 -55 -4 -55 -9 0 -6 -21 -13 -47 -16 -27
-4 -66 -11 -88 -17 -22 -6 -78 -16 -125 -23 -116 -18 -185 -32 -318 -66 -62
-16 -122 -29 -133 -29 -12 0 -105 -22 -208 -49 -102 -27 -213 -54 -246 -61
-33 -7 -82 -17 -110 -22 -27 -6 -64 -17 -82 -24 -17 -8 -38 -14 -47 -14 -9 0
-16 -4 -16 -8 0 -9 -136 -46 -162 -45 -10 1 -20 -2 -23 -8 -4 -5 -21 -9 -40
-9 -18 0 -35 -5 -37 -10 -2 -6 -27 -13 -56 -17 -28 -3 -52 -10 -52 -14 0 -5
-14 -9 -32 -9 -36 0 -150 -30 -158 -41 -3 -4 -33 -13 -68 -18 -155 -27 -179
-31 -212 -41 -19 -5 -47 -10 -62 -10 -16 0 -28 -5 -28 -11 0 -5 -4 -7 -10 -4
-5 3 -36 -1 -69 -10 -32 -8 -71 -15 -85 -15 -14 0 -26 -4 -26 -10 0 -5 -12
-10 -26 -10 -35 0 -118 -21 -125 -32 -5 -8 -31 -13 -174 -35 -22 -3 -42 -9
-45 -13 -5 -8 -120 -35 -187 -45 -24 -4 -43 -10 -43 -14 0 -5 -21 -11 -47 -15
-27 -3 -70 -11 -98 -16 -27 -5 -84 -14 -125 -19 -122 -16 -191 -29 -265 -49
-80 -23 -207 -39 -145 -19 19 6 37 13 40 16 3 3 21 7 40 9 19 1 37 6 40 11 6
10 52 21 104 27 22 2 42 8 45 12 8 13 51 25 83 24 16 0 28 3 28 7 0 7 35 14
143 26 21 2 48 11 60 20 12 8 29 15 39 15 10 0 18 7 18 16 0 12 -7 14 -33 9
-17 -4 -34 -11 -37 -15 -7 -10 -70 -24 -93 -21 -9 1 -17 -2 -17 -7 0 -5 -14
-7 -30 -4 -17 2 -36 -1 -44 -7 -7 -6 -35 -13 -61 -16 -27 -3 -51 -9 -54 -14
-8 -12 -79 -31 -118 -31 -17 0 -33 -4 -35 -9 -3 -9 -332 -100 -382 -105 -57
-6 -91 -17 -116 -38 l-25 -19 165 6 c91 4 183 13 205 20 22 7 89 18 149 23 60
6 112 14 115 19 3 4 17 9 31 9 90 5 224 16 230 19 3 2 71 9 150 15 80 6 149
15 154 20 6 6 52 10 103 10 57 0 126 8 176 19 123 29 186 41 212 41 13 0 25 4
27 10 1 5 26 12 53 15 102 11 191 28 222 41 17 8 38 14 47 14 9 0 16 4 16 9 0
5 39 11 88 15 48 3 128 13 177 21 50 9 133 19 185 24 142 13 364 43 370 51 7
9 93 30 124 30 14 0 26 4 26 9 0 4 30 11 67 15 38 4 95 13 128 21 338 77 388
87 525 99 8 1 35 11 60 23 25 11 69 26 98 33 28 6 52 16 52 20 0 4 17 11 38
14 20 4 66 11 102 17 36 6 110 21 165 34 286 66 400 90 478 100 26 3 47 10 47
14 0 16 82 32 358 73 45 6 82 15 82 19 0 4 17 10 37 14 21 4 41 11 44 16 3 5
29 12 57 16 29 3 52 9 52 13 0 3 24 12 53 20 28 7 54 16 57 19 11 15 134 41
194 41 38 0 66 5 68 11 2 6 26 13 53 16 28 3 55 9 60 13 22 16 114 39 185 45
41 4 81 11 90 16 8 4 67 12 130 18 64 5 116 14 118 20 2 6 19 11 38 11 19 0
34 5 34 10 0 6 9 10 20 10 11 0 20 5 20 10 0 6 12 10 28 10 15 0 43 5 62 10
48 14 140 30 234 40 44 5 82 13 85 17 3 5 33 9 66 11 59 2 111 12 285 53 47
11 102 19 122 19 21 0 57 6 80 14 56 18 100 26 173 33 33 3 62 8 65 12 3 4 59
15 125 25 66 9 143 22 170 27 28 5 91 12 140 14 50 3 124 12 165 21 112 24
282 62 396 90 56 13 114 24 128 24 14 0 26 4 26 8 0 5 37 17 83 26 126 27 211
49 217 56 7 8 154 47 213 55 26 3 47 10 47 14 0 4 25 13 55 20 30 7 55 17 55
22 0 5 9 9 19 9 11 0 21 4 23 9 2 5 50 14 108 21 176 19 190 22 190 31 0 4 6
6 14 3 8 -3 47 0 87 6 41 6 93 14 117 17 23 3 42 9 42 12 0 4 24 13 53 20 28
8 73 24 99 37 26 13 60 24 76 24 15 0 32 4 38 9 5 5 54 21 109 36 55 15 105
31 110 35 18 15 132 40 179 40 25 0 46 4 46 8 0 10 89 32 126 32 13 0 24 5 24
10 0 6 9 10 20 10 11 0 20 4 20 9 0 6 21 13 48 16 26 4 80 15 120 26 40 10 83
19 97 19 13 0 26 4 29 9 3 5 46 19 96 31 49 12 90 26 90 31 0 5 24 9 53 9 28
0 90 12 137 26 47 14 121 32 165 40 118 21 259 43 350 56 44 7 82 14 85 18 21
26 73 50 108 50 22 0 42 4 44 10 2 5 41 19 87 31 47 12 91 26 98 33 33 30 43
36 56 36 7 0 17 4 23 9 9 9 79 16 263 27 52 3 100 11 107 18 36 31 45 36 69
36 26 0 97 31 125 55 8 7 48 15 88 17 46 2 76 9 81 17 6 9 32 14 77 14 66 1
70 2 106 39 29 30 44 38 73 38 40 0 65 18 65 47 0 10 9 25 20 33 13 9 20 26
20 47 0 27 4 32 28 35 36 4 36 32 -1 36 -38 5 -57 -14 -57 -53 0 -19 -8 -39
-20 -50 -11 -10 -20 -26 -20 -37 0 -15 -8 -18 -43 -18 -37 0 -47 -5 -77 -40
-33 -39 -37 -40 -97 -40 -35 0 -63 -4 -63 -10 0 -5 -9 -10 -20 -10 -11 0 -20
-4 -20 -10 0 -6 -32 -10 -75 -10 -41 0 -75 -4 -75 -8 0 -13 -102 -61 -142 -67
-21 -3 -43 -14 -50 -24 -11 -15 -31 -20 -103 -25 -253 -16 -256 -17 -321 -52
-35 -19 -70 -34 -78 -34 -8 0 -16 -4 -18 -10 -1 -5 -25 -13 -53 -17 -27 -3
-56 -12 -63 -20 -7 -7 -31 -13 -53 -13 -22 0 -45 -5 -52 -10 -47 -40 -61 -50
-71 -50 -11 0 -65 -9 -231 -36 -49 -8 -126 -19 -170 -26 -44 -6 -82 -14 -85
-19 -3 -4 -27 -10 -54 -14 -27 -3 -56 -10 -63 -17 -7 -6 -50 -14 -95 -19 -44
-4 -84 -12 -87 -17 -6 -9 -325 -93 -428 -113 -35 -6 -63 -16 -63 -20 0 -5 -16
-9 -35 -9 -19 0 -35 -4 -35 -8 0 -10 -121 -40 -197 -48 -35 -4 -63 -10 -63
-14 0 -5 -18 -11 -40 -15 -22 -4 -40 -10 -40 -14 0 -8 -81 -31 -108 -31 -10 0
-36 -8 -58 -19 -21 -10 -60 -22 -86 -25 -27 -4 -48 -11 -48 -15 0 -9 -61 -31
-88 -31 -12 0 -22 -4 -22 -9 0 -14 -126 -43 -225 -52 -49 -5 -115 -13 -145
-19 -30 -6 -91 -14 -135 -17 -44 -3 -82 -8 -85 -12 -9 -11 -49 -31 -64 -31 -8
0 -16 -4 -18 -9 -2 -4 -77 -27 -168 -51 -91 -24 -175 -49 -187 -56 -21 -13
-141 -37 -178 -36 -11 1 -22 -3 -25 -7 -7 -11 -239 -71 -273 -71 -15 0 -27 -4
-27 -10 0 -5 -12 -10 -27 -10 -16 0 -70 -11 -121 -25 -51 -14 -113 -25 -137
-25 -24 0 -45 -5 -47 -12 -3 -7 -48 -14 -124 -19 -189 -13 -254 -21 -254 -29
0 -5 -35 -11 -77 -15 -43 -3 -96 -11 -118 -16 -41 -11 -99 -21 -195 -34 -30
-5 -57 -11 -60 -16 -3 -4 -52 -12 -109 -17 -57 -6 -107 -16 -111 -22 -4 -6
-42 -15 -86 -20 -43 -5 -95 -13 -114 -19 -19 -6 -55 -11 -80 -11 -25 0 -67 -7
-94 -15 -27 -8 -71 -15 -98 -15 -26 0 -48 -4 -48 -10 0 -5 -25 -10 -55 -10
-30 0 -55 -4 -55 -10 0 -5 -14 -10 -31 -10 -39 0 -119 -20 -119 -30 0 -4 -27
-13 -60 -20 -33 -7 -60 -16 -60 -20 0 -4 -48 -11 -107 -15 -60 -4 -110 -11
-113 -16 -3 -4 -47 -11 -98 -15 -50 -4 -92 -11 -92 -15 0 -5 -15 -9 -34 -9
-19 0 -36 -4 -38 -10 -1 -5 -25 -13 -53 -16 -27 -4 -53 -11 -56 -16 -3 -5 -41
-13 -85 -18 -135 -16 -174 -22 -174 -29 0 -3 -12 -11 -27 -18 -31 -13 -203
-62 -245 -70 -16 -3 -28 -9 -28 -13 0 -4 -28 -13 -62 -19 -35 -7 -82 -17 -105
-22 -23 -5 -59 -9 -80 -9 -21 0 -79 -12 -128 -26 -109 -31 -153 -41 -225 -53
-30 -5 -89 -18 -130 -29 -41 -12 -100 -23 -130 -27 -69 -7 -143 -26 -151 -37
-3 -5 -41 -13 -85 -18 -114 -13 -168 -22 -174 -29 -11 -14 -49 -29 -115 -46
-38 -10 -73 -22 -76 -27 -5 -8 -174 -37 -264 -45 -27 -2 -64 -11 -80 -18 -17
-8 -60 -19 -95 -24 -36 -6 -81 -15 -100 -21 -19 -5 -56 -10 -82 -10 -27 0 -48
-4 -48 -10 0 -5 -13 -10 -30 -10 -16 0 -80 -14 -142 -31 -125 -35 -186 -44
-392 -59 -77 -6 -142 -14 -145 -18 -7 -10 -155 -32 -274 -41 -49 -4 -91 -12
-95 -17 -9 -14 -131 -44 -178 -44 -20 0 -77 -11 -128 -24 -50 -13 -125 -29
-166 -36 -41 -7 -84 -16 -95 -20 -11 -5 -73 -11 -139 -14 -65 -3 -123 -10
-130 -15 -6 -5 -51 -11 -101 -14 -49 -3 -121 -9 -160 -15 -130 -19 -185 -23
-185 -11 0 5 4 8 8 5 11 -7 200 20 236 33 15 6 39 11 52 11 14 0 100 20 192
45 92 24 197 47 235 51 37 4 67 11 67 15 0 5 7 9 15 9 8 0 15 5 15 10 0 6 12
10 28 10 26 -1 66 8 307 66 110 27 138 32 269 53 38 6 89 20 114 31 25 11 64
23 86 26 23 3 100 21 172 40 71 19 142 34 157 34 15 0 27 4 27 8 0 5 25 14 55
21 30 7 55 16 55 20 0 8 134 41 168 41 12 0 22 4 22 9 0 6 21 13 48 16 26 4
97 20 158 36 61 16 123 29 137 29 15 0 27 4 27 8 0 9 54 22 175 42 39 7 78 16
87 21 10 5 31 9 48 9 16 0 30 4 30 9 0 4 21 11 48 15 26 3 70 11 97 16 28 5
75 12 105 15 107 11 672 149 678 166 2 5 8 7 12 4 12 -7 103 16 111 28 4 5 20
9 35 9 16 0 32 4 35 9 3 5 29 12 57 16 29 3 52 9 52 14 0 4 18 10 40 14 22 4
40 10 40 15 0 4 23 14 52 21 29 6 70 20 93 30 22 9 66 23 98 30 31 7 57 16 57
21 0 4 15 8 34 8 19 0 36 5 38 10 2 6 41 15 88 20 97 11 130 19 130 31 0 5 14
9 31 9 39 0 119 20 119 30 0 4 17 11 37 15 21 4 49 12 63 19 14 8 63 16 110
20 46 4 87 10 90 14 14 19 108 45 218 59 23 3 42 10 42 14 0 5 14 9 31 9 41 0
119 20 119 31 0 5 9 9 20 9 11 0 20 5 20 10 0 6 9 10 20 10 11 0 20 4 20 8 0
12 472 130 494 124 4 -2 67 14 140 34 72 20 142 36 156 36 14 0 28 4 31 9 3 5
52 16 110 25 175 27 192 30 242 53 27 11 55 21 62 21 27 0 250 63 253 72 2 4
8 6 13 3 9 -6 171 35 179 46 7 9 71 23 93 20 9 -1 17 2 17 7 0 5 30 13 68 17
71 7 224 44 232 56 7 10 162 49 194 49 14 0 26 4 26 9 0 5 19 12 43 16 45 7
149 27 262 52 39 9 79 22 90 29 11 8 33 14 49 14 32 0 105 19 122 32 6 4 30
10 55 13 24 3 46 9 49 14 5 7 68 23 198 50 30 6 70 11 90 11 20 0 62 7 92 15
30 8 67 15 83 15 15 0 27 5 27 10 0 6 15 10 33 10 18 0 37 4 42 9 11 10 160
52 190 53 11 1 61 12 110 26 50 13 101 26 115 29 14 3 27 9 30 12 8 11 127 41
160 41 16 0 30 5 30 10 0 6 9 10 20 10 11 0 20 4 20 9 0 5 26 15 58 24 31 8
100 27 152 42 52 14 110 29 128 32 17 3 32 9 32 14 0 5 7 9 16 9 8 0 34 9 57
19 23 11 59 22 80 26 20 4 37 11 37 16 0 4 16 11 35 15 19 3 35 10 35 15 0 5
15 9 34 9 19 0 38 5 41 10 3 6 18 10 32 10 14 0 62 9 107 20 44 10 117 26 161
35 154 31 180 38 193 51 7 8 25 14 39 14 14 0 37 6 51 14 59 31 151 61 228 76
126 24 223 41 264 45 25 3 46 9 48 15 2 5 10 10 18 10 8 0 14 4 14 9 0 5 34
12 75 16 41 4 75 11 75 16 0 5 9 9 20 9 11 0 20 4 20 8 0 13 48 32 80 32 17 0
30 5 30 10 0 6 21 10 46 10 56 0 134 19 152 37 7 7 23 13 36 13 12 0 27 5 34
12 6 6 25 11 42 10 16 0 30 3 30 8 0 5 15 12 33 15 17 4 35 13 39 19 5 7 87
12 263 14 215 2 255 5 255 17 0 13 -39 15 -255 15 -163 0 -255 -4 -255 -10z"/>
<path d="M12770 5580 c0 -5 -3 -9 -7 -9 -32 5 -63 -3 -63 -16 0 -18 0 -18 56
-4 41 11 63 39 29 39 -8 0 -15 -4 -15 -10z"/>
<path d="M12570 5542 c-30 -9 -57 -19 -60 -22 -3 -4 -29 -13 -57 -20 -29 -8
-53 -18 -53 -22 0 -5 -4 -7 -10 -3 -5 3 -87 -15 -182 -41 -95 -26 -182 -47
-193 -46 -11 1 -22 -2 -25 -7 -3 -4 -45 -18 -95 -31 -49 -13 -93 -28 -97 -34
-4 -6 -8 -7 -8 -3 0 4 -10 2 -22 -4 -12 -7 -35 -12 -50 -11 -15 0 -28 -3 -28
-8 0 -4 -19 -11 -42 -15 -79 -11 -143 -28 -150 -38 -3 -6 -20 -10 -37 -9 -17
0 -31 -3 -31 -6 0 -10 -139 -46 -167 -44 -13 1 -23 -2 -23 -7 0 -5 -9 -7 -20
-4 -11 3 -20 1 -20 -5 0 -5 -40 -20 -90 -32 -49 -12 -90 -25 -90 -29 0 -4 -6
-8 -12 -9 -40 -3 -138 -38 -138 -49 0 -7 4 -13 8 -13 15 0 117 32 127 40 6 4
26 11 45 15 19 4 44 12 55 18 11 5 35 12 54 13 19 2 37 7 40 13 7 10 77 31 84
25 7 -8 97 18 97 27 0 5 7 6 16 2 9 -3 19 0 24 7 4 6 24 12 44 12 20 0 36 4
36 9 0 4 16 11 35 15 19 3 35 9 35 13 0 3 23 6 50 6 32 0 54 5 59 14 5 7 25
13 45 13 20 0 36 4 36 8 0 5 25 14 55 21 30 7 55 16 55 21 0 5 4 6 10 3 9 -6
90 14 100 25 6 6 26 11 67 15 17 2 46 10 64 19 18 9 43 16 55 16 35 0 114 23
114 33 0 4 4 6 9 3 11 -7 204 43 211 54 3 5 22 11 43 15 20 4 37 11 37 15 0 4
6 8 13 7 38 -1 57 5 57 18 0 18 -8 18 -80 -3z"/>
<path d="M12660 5545 c0 -8 7 -15 15 -15 8 0 15 7 15 15 0 8 -7 15 -15 15 -8
0 -15 -7 -15 -15z"/>
<path d="M10830 5049 c0 -5 -4 -8 -9 -5 -5 4 -53 -6 -108 -21 -54 -14 -108
-26 -120 -25 -13 1 -23 -2 -23 -7 0 -5 -9 -7 -20 -4 -11 3 -20 1 -20 -5 0 -5
-16 -13 -35 -16 -19 -4 -35 -10 -35 -14 0 -4 -17 -8 -37 -9 -20 -1 -39 -7 -43
-13 -4 -7 -10 -11 -14 -11 -3 1 -9 0 -13 0 -5 -1 -16 -1 -25 0 -10 1 -18 -4
-18 -13 0 -9 3 -16 6 -16 18 0 203 54 226 66 15 8 44 16 65 17 70 7 253 60
253 74 0 7 -7 13 -15 13 -8 0 -15 -5 -15 -11z"/>
<path d="M10270 4909 c0 -5 -4 -8 -9 -4 -12 7 -205 -45 -209 -57 -2 -4 -8 -6
-12 -3 -5 3 -17 1 -27 -4 -25 -15 -214 -64 -238 -63 -11 1 -22 -4 -26 -10 -4
-6 -30 -10 -58 -10 -28 1 -51 -2 -51 -7 0 -5 -18 -12 -40 -16 -22 -4 -40 -10
-40 -14 0 -8 -86 -32 -128 -35 -42 -4 -132 -29 -132 -38 0 -4 -6 -5 -14 -2 -8
3 -34 -3 -58 -14 -23 -11 -59 -23 -78 -27 -34 -7 -100 -34 -110 -44 -3 -4 -21
-7 -40 -9 -19 -1 -44 -9 -55 -16 -11 -7 -36 -17 -55 -21 -19 -4 -54 -16 -77
-26 -23 -11 -49 -19 -57 -19 -9 0 -16 -4 -16 -10 0 -5 -3 -9 -7 -8 -11 2 -97
-25 -103 -32 -3 -4 -79 -26 -170 -50 -91 -24 -167 -47 -170 -51 -7 -9 -71 -24
-89 -20 -8 1 -17 -2 -21 -8 -3 -7 -30 -14 -58 -18 -29 -3 -52 -9 -52 -13 0 -5
-9 -6 -20 -3 -11 3 -20 1 -20 -4 0 -5 -34 -18 -75 -28 -41 -11 -75 -22 -75
-25 0 -4 -25 -13 -55 -20 -35 -8 -55 -18 -55 -27 0 -17 43 -10 105 17 22 10
64 23 93 30 28 6 52 16 52 20 0 8 50 20 109 25 19 2 37 8 40 14 4 5 31 12 61
15 29 3 56 10 59 15 3 5 78 28 166 51 88 24 162 46 165 50 3 4 21 11 40 15 19
4 46 13 60 21 14 7 44 18 67 24 23 6 45 15 48 20 3 6 15 10 26 10 10 0 19 4
19 9 0 5 9 7 20 4 11 -3 20 -1 20 4 0 5 6 10 13 11 22 2 132 36 137 43 3 3 29
12 58 19 28 8 52 17 52 22 0 4 7 5 16 1 9 -3 19 -1 23 4 8 13 208 67 239 65
12 -1 22 3 22 8 0 5 6 7 14 4 14 -5 96 26 96 37 0 4 9 5 20 2 11 -3 20 0 20 6
0 6 12 11 28 11 15 0 52 7 82 15 30 8 67 15 83 15 15 0 27 4 27 9 0 5 9 7 20
4 12 -3 20 0 20 6 0 7 4 9 10 6 9 -6 90 14 100 25 3 3 12 7 20 9 83 20 166 47
168 53 2 5 8 6 12 3 15 -9 100 18 100 32 0 7 -7 13 -15 13 -8 0 -15 -5 -15
-11z"/>
<path d="M1164 4388 c-24 -11 -44 -48 -44 -78 0 -32 33 -23 50 13 27 57 100
47 100 -15 0 -25 -9 -34 -64 -69 -42 -26 -70 -52 -80 -74 -30 -63 -28 -65 89
-65 98 0 105 1 105 20 0 18 -7 20 -80 20 -68 0 -79 2 -73 16 3 8 30 29 59 46
98 55 120 113 65 169 -32 31 -84 38 -127 17z"/>
<path d="M1380 4372 c-19 -20 -31 -44 -35 -76 -20 -133 35 -222 124 -200 91
23 112 230 30 288 -37 26 -86 21 -119 -12z m104 -34 c11 -15 16 -46 16 -95 0
-60 -4 -77 -20 -93 -24 -24 -39 -25 -66 -6 -16 12 -19 27 -19 101 0 74 3 89
19 101 28 20 53 17 70 -8z"/>
<path d="M7680 4152 c-30 -8 -57 -19 -60 -22 -3 -4 -29 -13 -57 -20 -29 -8
-53 -17 -53 -22 0 -4 -7 -5 -15 -2 -8 3 -22 -1 -31 -10 -9 -9 -36 -22 -60 -28
-24 -7 -44 -15 -44 -19 0 -4 -9 -5 -20 -2 -11 3 -20 1 -20 -5 0 -5 -16 -13
-35 -16 -19 -4 -35 -11 -35 -16 0 -4 -9 -6 -20 -3 -11 3 -20 1 -20 -5 0 -6 -9
-8 -20 -5 -11 3 -20 0 -20 -6 0 -6 -7 -11 -16 -11 -15 0 -91 -28 -149 -56 -16
-8 -45 -17 -62 -20 -18 -4 -33 -10 -33 -15 0 -5 -8 -9 -18 -9 -10 0 -27 -6
-37 -14 -10 -7 -27 -11 -37 -8 -10 2 -18 -1 -18 -7 0 -6 -9 -11 -20 -11 -11 0
-20 -5 -20 -11 0 -5 -4 -8 -9 -5 -5 3 -21 -1 -37 -9 -16 -8 -54 -16 -84 -19
-30 -3 -56 -10 -58 -16 -2 -5 -19 -12 -38 -16 -19 -3 -34 -9 -34 -13 0 -4 -6
-8 -12 -9 -27 -2 -133 -37 -136 -44 -2 -4 -11 -8 -20 -8 -9 0 -26 -7 -36 -15
-11 -8 -27 -15 -35 -15 -9 0 -28 -6 -42 -14 -14 -7 -38 -16 -55 -20 -16 -4
-31 -11 -34 -15 -3 -4 -45 -18 -95 -31 -49 -12 -92 -26 -95 -30 -7 -11 -119
-60 -136 -60 -8 0 -14 -4 -14 -9 0 -5 -9 -7 -20 -4 -11 3 -20 1 -20 -5 0 -5
-11 -13 -24 -16 -14 -3 -31 -12 -38 -19 -7 -7 -70 -28 -140 -47 -71 -18 -128
-37 -128 -41 0 -5 -6 -6 -14 -3 -8 3 -17 1 -21 -5 -3 -6 -13 -11 -21 -11 -8 0
-34 -9 -57 -19 -23 -11 -59 -22 -79 -26 -21 -4 -38 -11 -38 -16 0 -4 -16 -11
-35 -15 -19 -3 -35 -10 -35 -14 0 -9 -109 -35 -132 -31 -10 1 -18 -3 -18 -8 0
-6 -9 -11 -20 -11 -11 0 -20 -4 -20 -10 0 -5 -9 -10 -20 -10 -11 0 -20 -4 -20
-10 0 -5 -16 -12 -35 -16 -21 -4 -35 -12 -35 -21 0 -11 7 -13 33 -8 17 4 34
10 37 14 3 3 19 13 35 21 17 8 32 18 35 22 3 4 37 12 75 18 38 6 72 15 75 19
3 5 21 12 40 16 19 4 45 13 57 21 12 8 28 14 35 14 7 0 25 6 40 14 15 8 40 17
57 21 17 4 31 11 31 16 0 6 5 7 10 4 6 -4 16 -2 23 3 7 5 36 15 65 23 28 7 52
16 52 20 0 4 9 5 20 2 12 -3 20 0 20 6 0 7 4 10 9 6 12 -7 101 17 101 27 0 4
7 8 15 8 15 0 56 20 65 31 3 4 25 12 50 19 25 7 50 15 55 20 6 4 23 10 39 14
17 4 41 15 55 25 14 10 58 26 96 36 39 10 72 21 75 24 7 8 97 41 148 54 23 5
42 14 42 19 0 4 7 8 15 8 8 0 15 4 15 9 0 4 27 14 60 21 33 7 60 16 60 21 0 4
25 13 55 20 30 7 55 15 55 19 0 9 68 24 93 21 9 -1 17 2 17 8 0 6 7 8 16 4 9
-3 19 -2 23 4 8 13 101 45 129 44 12 0 22 4 22 9 0 6 7 10 15 10 8 0 15 4 15
9 0 5 18 12 40 16 22 4 40 11 40 16 0 5 3 8 8 7 13 -2 102 26 102 33 0 4 18
10 40 14 22 4 40 10 40 15 0 4 32 16 70 25 39 9 72 21 75 25 3 4 36 16 75 25
38 9 70 20 70 24 0 9 47 28 103 42 26 6 47 15 47 19 0 4 34 15 75 25 49 11 75
22 75 31 0 17 -10 17 -80 -4z"/>
<path d="M4733 3102 c-13 -2 -23 -8 -23 -13 0 -6 -4 -8 -10 -4 -11 7 -140 -26
-140 -37 0 -4 -6 -5 -14 -2 -7 3 -40 -4 -72 -16 -33 -11 -93 -30 -134 -42 -41
-12 -77 -24 -80 -28 -8 -10 -312 -90 -342 -90 -15 0 -28 -4 -30 -8 -3 -8 -475
-134 -575 -153 -35 -6 -63 -16 -63 -21 0 -5 -4 -7 -10 -3 -16 10 -60 -6 -60
-22 0 -11 6 -14 23 -9 12 3 54 13 92 22 173 39 540 137 543 145 2 4 9 6 17 3
7 -3 16 -1 20 5 3 6 22 11 41 11 19 0 34 4 34 9 0 5 9 7 20 4 11 -3 20 -1 20
5 0 6 9 8 20 5 11 -3 20 -1 20 4 0 5 15 10 33 11 17 2 33 7 35 11 2 5 12 7 22
4 11 -3 20 -1 20 3 0 5 16 10 34 11 19 1 56 11 82 22 25 12 53 21 60 21 8 0
14 4 14 8 0 4 15 9 33 10 17 2 33 7 35 11 2 5 12 7 22 4 11 -3 20 -1 20 4 0 5
50 22 110 38 61 15 110 30 110 34 0 3 10 7 23 7 68 4 127 18 127 30 0 12 -26
14 -77 6z"/>
<path d="M1380 2512 c-19 -20 -31 -44 -35 -76 -20 -133 35 -222 124 -200 91
23 112 230 30 288 -37 26 -86 21 -119 -12z m104 -34 c11 -15 16 -46 16 -95 0
-60 -4 -77 -20 -93 -24 -24 -39 -25 -66 -6 -16 12 -19 27 -19 101 0 74 3 89
19 101 28 20 53 17 70 -8z"/>
<path d="M2020 1832 c-19 -20 -31 -44 -35 -76 -20 -133 35 -222 124 -200 91
23 112 230 30 288 -37 26 -86 21 -119 -12z m104 -34 c11 -15 16 -46 16 -95 0
-60 -4 -77 -20 -93 -24 -24 -39 -25 -66 -6 -16 12 -19 27 -19 101 0 74 3 89
19 101 28 20 53 17 70 -8z"/>
<path d="M6436 1836 c-8 -14 -26 -26 -38 -28 -13 -2 -24 -11 -26 -20 -3 -15 4
-18 32 -18 l36 0 0 -105 c0 -98 1 -105 20 -105 19 0 20 7 20 150 0 121 -3 150
-14 150 -7 0 -21 -11 -30 -24z"/>
<path d="M6620 1832 c-19 -20 -31 -44 -35 -76 -20 -133 35 -222 124 -200 91
23 112 230 30 288 -37 26 -86 21 -119 -12z m104 -34 c11 -15 16 -46 16 -95 0
-60 -4 -77 -20 -93 -24 -24 -39 -25 -66 -6 -16 12 -19 27 -19 101 0 74 3 89
19 101 28 20 53 17 70 -8z"/>
<path d="M10874 1848 c-24 -11 -44 -48 -44 -78 0 -32 33 -23 50 13 27 57 100
47 100 -15 0 -25 -9 -34 -64 -69 -42 -26 -70 -52 -80 -74 -30 -63 -28 -65 89
-65 98 0 105 1 105 20 0 18 -7 20 -80 20 -68 0 -79 2 -73 16 3 8 30 29 59 46
98 55 120 113 65 169 -32 31 -84 38 -127 17z"/>
<path d="M11100 1832 c-19 -20 -31 -44 -35 -76 -20 -133 35 -222 124 -200 91
23 112 230 30 288 -37 26 -86 21 -119 -12z m104 -34 c11 -15 16 -46 16 -95 0
-60 -4 -77 -20 -93 -24 -24 -39 -25 -66 -6 -16 12 -19 27 -19 101 0 74 3 89
19 101 28 20 53 17 70 -8z"/>
<path d="M15335 1835 c-31 -30 -34 -75 -6 -75 12 0 21 9 25 25 7 28 50 44 75
28 9 -6 16 -23 16 -39 0 -23 -6 -30 -32 -38 -40 -11 -43 -31 -6 -41 16 -4 34
-11 40 -17 22 -18 15 -56 -12 -74 -35 -23 -74 -11 -88 26 -14 37 -47 41 -47 6
0 -59 68 -95 141 -76 63 17 91 98 49 140 -18 18 -19 21 -3 48 46 80 -85 155
-152 87z"/>
<path d="M15580 1832 c-19 -20 -31 -44 -35 -76 -20 -133 35 -222 124 -200 91
23 112 230 30 288 -37 26 -86 21 -119 -12z m104 -34 c11 -15 16 -46 16 -95 0
-60 -4 -77 -20 -93 -24 -24 -39 -25 -66 -6 -16 12 -19 27 -19 101 0 74 3 89
19 101 28 20 53 17 70 -8z"/>
<path d="M8530 1394 c0 -4 25 -46 55 -94 51 -81 55 -91 55 -149 0 -58 1 -61
25 -61 24 0 25 2 25 63 0 59 3 69 55 151 30 48 55 89 55 92 0 2 -11 4 -25 4
-25 0 -27 -2 -95 -114 l-18 -29 -42 72 c-34 56 -47 71 -66 71 -13 0 -24 -3
-24 -6z"/>
<path d="M8817 1299 c-53 -41 -56 -150 -6 -195 31 -28 100 -26 133 5 14 14 26
30 26 38 0 20 -33 16 -53 -7 -22 -27 -62 -26 -81 2 -30 42 -22 48 64 48 89 0
92 3 69 69 -20 58 -103 80 -152 40z m101 -31 c7 -7 12 -20 12 -30 0 -15 -9
-18 -55 -18 -59 0 -68 10 -38 42 18 20 63 24 81 6z"/>
<path d="M9042 1304 c-25 -17 -31 -64 -7 -64 8 0 19 9 25 21 16 29 84 24 88
-7 3 -19 -3 -23 -47 -29 -28 -4 -61 -15 -73 -24 -24 -20 -29 -71 -9 -95 20
-24 67 -29 103 -11 21 10 34 12 36 5 6 -16 62 -12 62 4 0 8 -7 16 -15 20 -12
4 -15 23 -15 85 0 71 -2 82 -22 95 -12 9 -41 16 -63 16 -22 0 -51 -7 -63 -16z
m108 -129 c0 -32 -41 -60 -75 -51 -16 4 -25 13 -25 26 0 23 13 32 60 41 19 4
36 7 38 8 1 0 2 -10 2 -24z"/>
<path d="M9260 1205 c0 -108 1 -115 20 -115 18 0 20 7 20 71 0 81 9 104 45
113 16 4 25 13 25 26 0 22 -20 26 -50 10 -13 -7 -21 -7 -25 0 -3 5 -13 10 -21
10 -11 0 -14 -22 -14 -115z"/>
<path d="M9410 1300 c-23 -23 -26 -72 -6 -89 7 -6 37 -18 65 -27 44 -13 52
-18 49 -37 -4 -31 -60 -36 -85 -8 -15 18 -53 30 -53 16 0 -18 26 -55 47 -64
66 -30 143 9 143 74 0 20 -45 52 -84 59 -37 7 -62 29 -51 46 9 15 61 12 75 -5
16 -19 50 -20 50 -1 0 8 -12 24 -26 35 -35 28 -97 28 -124 1z"/>
<path d="M1944 816 c-12 -9 -25 -27 -28 -42 -11 -42 14 -68 83 -87 53 -15 61
-20 61 -41 0 -26 -16 -36 -60 -36 -28 0 -60 22 -60 41 0 5 -9 9 -19 9 -18 0
-19 -3 -9 -31 29 -84 188 -67 188 20 0 32 -39 71 -70 71 -35 0 -80 22 -80 39
0 46 66 56 98 16 11 -14 25 -25 31 -25 15 0 14 32 -2 54 -19 26 -104 33 -133
12z"/>
<path d="M3180 705 c0 -104 2 -125 15 -125 11 0 15 12 15 50 l0 51 58 -3 57
-3 5 -45 c4 -36 9 -46 26 -48 20 -3 21 0 17 45 -3 26 -10 54 -16 61 -7 9 -7
16 1 24 7 7 12 29 12 51 0 34 -4 40 -35 53 -19 7 -62 14 -95 14 l-60 0 0 -125z
m149 67 c18 -34 -5 -52 -64 -52 l-55 0 0 35 0 35 55 0 c42 0 56 -4 64 -18z"/>
<path d="M3415 818 c-3 -8 -4 -63 -3 -124 l3 -109 68 -3 c63 -3 70 -1 97 26
50 50 50 152 0 197 -27 24 -157 35 -165 13z m139 -41 c12 -9 20 -31 24 -65 4
-44 1 -54 -21 -76 -20 -19 -36 -26 -67 -26 l-40 0 0 90 0 90 43 0 c24 0 51 -6
61 -13z"/>
<path d="M3690 800 c-66 -70 -38 -202 48 -223 35 -8 89 11 112 40 25 33 26 53
0 53 -11 0 -20 -6 -20 -13 0 -41 -83 -63 -112 -29 -52 58 -19 172 49 172 13 0
35 -11 49 -25 26 -26 54 -33 54 -14 0 6 -13 24 -29 40 -24 24 -38 29 -76 29
-39 0 -52 -5 -75 -30z"/>
<path d="M3956 822 c-6 -10 -76 -227 -76 -235 0 -4 6 -7 14 -7 11 0 86 206 86
239 0 13 -16 15 -24 3z"/>
<path d="M3997 823 c-4 -3 -7 -60 -7 -125 0 -111 1 -118 20 -118 19 0 20 7 20
93 l0 92 60 -92 c43 -66 66 -93 80 -93 19 0 20 7 20 126 0 114 -2 125 -17 122
-15 -3 -19 -18 -23 -91 l-5 -87 -55 90 c-50 82 -74 103 -93 83z"/>
<path d="M4270 800 c-66 -70 -38 -202 48 -223 35 -8 89 11 112 40 25 33 26 53
0 53 -11 0 -20 -6 -20 -13 0 -41 -83 -63 -112 -29 -52 58 -19 172 49 172 13 0
35 -11 49 -25 26 -26 54 -33 54 -14 0 6 -13 24 -29 40 -24 24 -38 29 -76 29
-39 0 -52 -5 -75 -30z"/>
<path d="M4487 823 c-4 -3 -7 -60 -7 -125 0 -111 1 -118 20 -118 18 0 20 7 20
55 l0 55 60 0 60 0 0 -55 c0 -48 2 -55 20 -55 19 0 20 7 20 126 0 114 -2 125
-17 122 -14 -2 -19 -15 -21 -51 l-3 -47 -60 0 -59 0 0 50 c0 35 -4 50 -13 50
-8 0 -17 -3 -20 -7z"/>
<path d="M4764 816 c-12 -9 -25 -27 -28 -42 -11 -42 14 -68 83 -87 53 -15 61
-20 61 -41 0 -26 -16 -36 -60 -36 -28 0 -60 22 -60 41 0 5 -9 9 -19 9 -18 0
-19 -3 -9 -31 29 -84 188 -67 188 20 0 32 -39 71 -70 71 -35 0 -80 22 -80 39
0 46 66 56 98 16 11 -14 25 -25 31 -25 15 0 14 32 -2 54 -19 26 -104 33 -133
12z"/>
<path d="M5006 822 c-6 -10 -76 -227 -76 -235 0 -4 6 -7 14 -7 11 0 86 206 86
239 0 13 -16 15 -24 3z"/>
<path d="M5080 800 c-66 -70 -38 -202 48 -223 35 -8 89 11 112 40 25 33 26 53
0 53 -11 0 -20 -6 -20 -13 0 -41 -83 -63 -112 -29 -52 58 -19 172 49 172 13 0
35 -11 49 -25 26 -26 54 -33 54 -14 0 6 -13 24 -29 40 -24 24 -38 29 -76 29
-39 0 -52 -5 -75 -30z"/>
<path d="M5295 818 c-3 -8 -4 -63 -3 -124 l3 -109 68 -3 c63 -3 70 -1 97 26
50 50 50 152 0 197 -27 24 -157 35 -165 13z m139 -41 c12 -9 20 -31 24 -65 4
-44 1 -54 -21 -76 -20 -19 -36 -26 -67 -26 l-40 0 0 90 0 90 43 0 c24 0 51 -6
61 -13z"/>
<path d="M5560 800 c-66 -70 -38 -202 48 -223 35 -8 89 11 112 40 25 33 26 53
0 53 -11 0 -20 -6 -20 -13 0 -41 -83 -63 -112 -29 -52 58 -19 172 49 172 13 0
35 -11 49 -25 26 -26 54 -33 54 -14 0 6 -13 24 -29 40 -24 24 -38 29 -76 29
-39 0 -52 -5 -75 -30z"/>
<path d="M5836 822 c-6 -10 -76 -227 -76 -235 0 -4 6 -7 14 -7 11 0 86 206 86
239 0 13 -16 15 -24 3z"/>
<path d="M5875 818 c-3 -8 -4 -63 -3 -124 l3 -109 68 -3 c63 -3 70 -1 97 26
50 50 50 152 0 197 -27 24 -157 35 -165 13z m139 -41 c12 -9 20 -31 24 -65 4
-44 1 -54 -21 -76 -20 -19 -36 -26 -67 -26 l-40 0 0 90 0 90 43 0 c24 0 51 -6
61 -13z"/>
<path d="M6117 823 c-4 -3 -7 -60 -7 -125 0 -111 1 -118 20 -118 18 0 20 7 20
55 l0 55 60 0 60 0 0 -55 c0 -48 2 -55 20 -55 19 0 20 7 20 126 0 114 -2 125
-17 122 -14 -2 -19 -15 -21 -51 l-3 -47 -60 0 -59 0 0 50 c0 35 -4 50 -13 50
-8 0 -17 -3 -20 -7z"/>
<path d="M6367 823 c-4 -3 -7 -60 -7 -125 0 -111 1 -118 20 -118 18 0 20 7 20
55 l0 55 60 0 60 0 0 -55 c0 -48 2 -55 20 -55 19 0 20 7 20 126 0 114 -2 125
-17 122 -14 -2 -19 -15 -21 -51 l-3 -47 -60 0 -59 0 0 50 c0 35 -4 50 -13 50
-8 0 -17 -3 -20 -7z"/>
<path d="M6634 816 c-12 -9 -25 -27 -28 -42 -11 -42 14 -68 83 -87 53 -15 61
-20 61 -41 0 -26 -16 -36 -60 -36 -28 0 -60 22 -60 41 0 5 -9 9 -19 9 -18 0
-19 -3 -9 -31 29 -84 188 -67 188 20 0 32 -39 71 -70 71 -35 0 -80 22 -80 39
0 46 66 56 98 16 11 -14 25 -25 31 -25 15 0 14 32 -2 54 -19 26 -104 33 -133
12z"/>
<path d="M2193 762 c-52 -8 -84 -109 -49 -154 26 -35 88 -43 123 -15 7 5 18
27 23 48 20 73 -28 132 -97 121z m55 -44 c16 -16 15 -70 -1 -92 -9 -12 -23
-17 -42 -14 -23 2 -31 10 -39 35 -16 58 43 110 82 71z"/>
<path d="M2664 760 c-54 -21 -73 -115 -34 -158 40 -42 130 -21 130 31 0 24
-23 21 -38 -4 -9 -14 -21 -19 -39 -17 -54 6 -48 109 6 116 15 2 28 -3 33 -12
11 -20 38 -21 38 -2 0 16 -26 46 -40 46 -5 0 -14 2 -22 4 -7 3 -23 1 -34 -4z"/>
<path d="M2320 681 c0 -53 4 -82 13 -90 8 -6 41 -10 75 -10 l62 1 0 89 c0 82
-1 89 -20 89 -18 0 -20 -7 -20 -63 0 -67 -10 -87 -46 -87 -26 0 -34 23 -34 98
0 39 -4 52 -15 52 -12 0 -15 -15 -15 -79z"/>
<path d="M2510 670 c0 -73 3 -90 15 -90 11 0 15 12 15 44 0 58 15 97 40 103
11 3 20 12 20 19 0 17 -32 18 -48 2 -9 -9 -12 -9 -12 0 0 7 -7 12 -15 12 -12
0 -15 -17 -15 -90z"/>
<path d="M2822 753 c-19 -7 -42 -58 -42 -92 0 -45 39 -85 83 -85 37 0 77 26
77 51 0 19 -18 16 -47 -6 -24 -20 -51 -18 -65 3 -19 28 -7 36 50 36 32 0 61 3
64 6 10 9 -11 68 -29 82 -17 12 -66 15 -91 5z m78 -43 c10 -19 8 -20 -35 -20
-46 0 -54 7 -33 28 19 19 56 14 68 -8z"/>
<path d="M3000 740 c0 -11 7 -20 15 -20 8 0 15 9 15 20 0 11 -7 20 -15 20 -8
0 -15 -9 -15 -20z"/>
<path d="M3000 600 c0 -11 7 -20 15 -20 8 0 15 9 15 20 0 11 -7 20 -15 20 -8
0 -15 -9 -15 -20z"/>
</g>
</svg>
